HIERARCHY
ROOT Hips
{
	OFFSET 0.00000 0.00000 0.00000
	CHANNELS 6 Xposition Yposition Zposition Zrotation Yrotation Xrotation 
	JOINT LHipJoint
	{
		OFFSET 0 0 0
		CHANNELS 3 Zrotation Yrotation Xrotation
		JOINT LeftHip
		{
			OFFSET 1.75344 -1.53157 0.77399
			CHANNELS 3 Zrotation Yrotation Xrotation
			JOINT LeftKnee
			{
				OFFSET 2.25415 -6.19323 0.00000
				CHANNELS 3 Zrotation Yrotation Xrotation
				JOINT LeftAnkle
				{
					OFFSET 2.30342 -6.32861 0.00000
					CHANNELS 3 Zrotation Yrotation Xrotation
					JOINT LeftToe
					{
						OFFSET 0.10958 -0.30108 1.49206
						CHANNELS 3 Zrotation Yrotation Xrotation
						End Site
						{
							OFFSET 0.00000 -0.00000 0.77783
						}
					}
				}
			}
		}
	}
	JOINT RHipJoint
	{
		OFFSET 0 0 0
		CHANNELS 3 Zrotation Yrotation Xrotation
		JOINT RightHip
		{
			OFFSET -1.81912 -1.53156 0.77399
			CHANNELS 3 Zrotation Yrotation Xrotation
			JOINT RightKnee
			{
				OFFSET -2.22882 -6.12365 0.00000
				CHANNELS 3 Zrotation Yrotation Xrotation
				JOINT RightAnkle
				{
					OFFSET -2.21943 -6.09785 0.00000
					CHANNELS 3 Zrotation Yrotation Xrotation
					JOINT RightToe
					{
						OFFSET -0.18931 -0.52012 1.59379
						CHANNELS 3 Zrotation Yrotation Xrotation
						End Site
						{
							OFFSET -0.00000 -0.00000 0.84686
						}
					}
				}
			}
		}
	}
	JOINT lowerback
	{
		OFFSET 0 0 0
		CHANNELS 3 Zrotation Yrotation Xrotation
		JOINT Chest
		{
			OFFSET -0.00200 1.66634 -0.14248
			CHANNELS 3 Zrotation Yrotation Xrotation
			JOINT Chest2
			{
				OFFSET -0.00875 1.64542 0.09514
				CHANNELS 3 Zrotation Yrotation Xrotation
				JOINT lowerneck
				{
					OFFSET 0 0 0
					CHANNELS 3 Zrotation Yrotation Xrotation
					JOINT Neck
					{
						OFFSET 0.02257 1.59605 0.00839
						CHANNELS 3 Zrotation Yrotation Xrotation
						JOINT Head
						{
							OFFSET -0.10214 1.57530 -0.23335
							CHANNELS 3 Zrotation Yrotation Xrotation
							End Site
							{
								OFFSET -0.03588 1.60717 -0.08062
							}
						}
					}
				}
				JOINT LeftCollar
				{
					OFFSET 0 0 0
					CHANNELS 3 Zrotation Yrotation Xrotation
					JOINT LeftShoulder
					{
						OFFSET 2.54983 1.10186 0.40078
CHANNELS 3 Zrotation Xrotation Yrotation
						JOINT LeftElbow
						{
OFFSET 0 -4.288400 0.000000
CHANNELS 3 Zrotation Xrotation Yrotation
							JOINT LeftWrist
							{
OFFSET 0 -3.065520 -0.000000
CHANNELS 3 Zrotation Xrotation Yrotation
								JOINT lhand
								{
									OFFSET 0 0 0
CHANNELS 3 Zrotation Xrotation Yrotation
									JOINT LFingers
									{
OFFSET 0 -0.753040 0.000000
CHANNELS 3 Zrotation Xrotation Yrotation
										End Site
										{
OFFSET 0 -0.607120 0.000000
										}
									}
								}
								JOINT LThumb
								{
OFFSET 0 0.000000 0.000000
CHANNELS 3 Zrotation Xrotation Yrotation
									End Site
									{
OFFSET 0 -0.616390 0.616390
									}
								}
							}
						}
					}
				}
				JOINT RightCollar
				{
					OFFSET 0 0 0
					CHANNELS 3 Zrotation Yrotation Xrotation
					JOINT RightShoulder
					{
						OFFSET -2.60909 1.35448 0.21802
CHANNELS 3 Zrotation Xrotation Yrotation
						JOINT RightElbow
						{
OFFSET 0 -4.521720 -0.000000
CHANNELS 3 Zrotation Xrotation Yrotation
							JOINT RightWrist
							{
OFFSET 0 -2.891400 0.000000
CHANNELS 3 Zrotation Xrotation Yrotation
								JOINT rhand
								{
									OFFSET 0 0 0
CHANNELS 3 Zrotation Xrotation Yrotation
									JOINT RFingers
									{
OFFSET 0 -0.680540 0.000000
CHANNELS 3 Zrotation Xrotation Yrotation
										End Site
										{
OFFSET 0 -0.548670 0.000000
										}
									}
								}
								JOINT RThumb
								{
OFFSET 0 0.000000 0.000000
CHANNELS 3 Zrotation Xrotation Yrotation
									End Site
									{
OFFSET 0 -0.557050 0.557050
									}
								}
							}
						}
					}
				}
			}
		}
	}
}
MOTION
Frames: 11
Frame Time: .0083333
8.6137 15.4775 22.4268 -179.0880 -1.1143 179.3620 0.0000 0.0000 0.0000 -24.1506 -16.5747 0.2360 1.7225 8.2625 23.5142 1.4930 5.8130 -25.8191 1.8195 -8.4795 -24.1803 0.0000 0.0000 0.0000 26.7480 12.9914 5.1266 -0.8015 -5.7141 15.9571 0.2076 -18.5219 -24.4147 -0.0272 -1.0642 2.9255 1.3065 1.4814 9.3942 -0.1013 2.1227 -3.6798 -1.2041 0.9363 -9.1470 -6.9906 -3.5135 -9.9372 6.8842 -4.7969 12.0197 2.9239 -2.2540 5.5885 0.0000 0.0000 0.0000 2.3865 16.1541 -30.2722 15.9373 -25.4355 3.619 5.9229 10.477 32.5904 0.0 0.0 0.0 -7.1250 0.0 0.0 -14.5537 -1.8341 -15.515 0.0000 0.0000 0.0000 -6.1866 19.6906 48.4514 -18.8016 -29.1714 -4.9338 -16.0014 32.1365 55.4764 0.0 0.0 0.0 7.1250 0.0 -0.0 76.4069 77.7496 -63.9347
8.6124 15.4798 22.4253 -179.0980 -1.0878 179.3780 0.0000 0.0000 0.0000 -24.1776 -16.5910 0.2509 1.7151 8.2456 23.4625 1.4760 5.9344 -25.7652 1.8540 -8.5551 -24.4133 0.0000 0.0000 0.0000 26.7319 13.0190 5.1605 -0.7954 -5.6928 15.8955 0.2286 -18.6284 -24.3845 -0.0187 -0.8836 2.4285 1.2865 1.4786 9.3937 -0.1029 2.1162 -3.6790 -1.1935 0.9343 -9.1467 -6.9529 -3.4943 -9.9947 6.8982 -4.7793 12.0712 2.9229 -2.2422 5.6125 0.0000 -0.0000 0.0000 2.3787 16.1747 -30.2183 15.9230 -25.4161 3.6128 5.7354 10.5706 32.6094 0.0 0.0 0.0 -7.1250 0.0 0.0 -14.6579 -1.8315 -15.6331 0.0000 -0.0000 0.0000 -6.2216 19.7007 48.5111 -18.8406 -29.2201 -4.9528 -15.6407 31.6344 55.6497 0.0 0.0 0.0 7.1250 0.0 -0.0 77.2009 77.6274 -64.5701
8.6114 15.4805 22.4249 -179.0590 -1.0608 179.3760 0.0000 0.0000 0.0000 -24.1439 -16.5909 0.2809 1.7071 8.2274 23.4068 1.4627 6.0483 -25.7348 1.9100 -8.6760 -24.7871 0.0000 0.0000 0.0000 26.7797 13.0763 5.1747 -0.7963 -5.6958 15.9044 0.2429 -18.6672 -24.3122 -0.0072 -0.5489 1.5083 1.3285 1.4781 9.4032 -0.0898 2.1227 -3.6608 -1.2042 0.9359 -9.1312 -6.9855 -3.4685 -9.9831 6.9817 -4.7421 11.9554 2.9581 -2.2191 5.5746 0.0000 -0.0000 0.0000 2.391 16.1857 -30.2224 15.9422 -25.4422 3.6211 5.4854 10.7392 32.4858 0.0 0.0 0.0 -7.1250 0.0 0.0 -14.7905 -1.6846 -15.747 0.0000 -0.0000 0.0000 -6.2629 19.6929 48.5719 -18.8645 -29.25 -4.9645 -15.3275 31.3683 55.9247 0.0 0.0 0.0 7.1250 0.0 -0.0 78.4506 77.5282 -65.6764
8.6119 15.4798 22.4269 -179.0340 -1.0749 179.4010 0.0000 0.0000 0.0000 -24.1065 -16.6589 0.2786 1.7032 8.2183 23.3792 1.4624 6.0948 -25.7605 1.8795 -8.6105 -24.5843 0.0000 0.0000 0.0000 26.8117 13.1025 5.1676 -0.7919 -5.6806 15.8605 0.2570 -18.6954 -24.2259 -0.0063 -0.5124 1.4081 1.3403 1.4717 9.4150 -0.0779 2.1171 -3.6480 -1.1974 0.9332 -9.1243 -7.0417 -3.4548 -9.9859 7.0533 -4.7169 11.8689 2.9922 -2.2034 5.5493 -0.0000 -0.0000 0.0000 2.3993 16.1908 -30.1887 15.9817 -25.4958 3.6381 5.2856 10.9195 32.529 0.0 0.0 0.0 -7.1250 0.0 0.0 -14.9023 -1.7043 -15.8796 -0.0000 -0.0000 0.0000 -6.3025 19.6628 48.6301 -18.8936 -29.2862 -4.9787 -14.8504 30.8941 55.979 0.0 0.0 0.0 7.1250 0.0 -0.0 78.6755 77.3535 -65.7043
8.6123 15.4800 22.4280 -179.0180 -1.0912 179.4170 0.0000 0.0000 0.0000 -24.0725 -16.6485 0.2466 1.7016 8.2147 23.3680 1.4617 6.1351 -25.7797 1.8932 -8.6401 -24.6757 0.0000 0.0000 0.0000 26.8374 13.1516 5.1886 -0.7882 -5.6675 15.8227 0.2469 -18.6948 -24.3180 -0.0139 -0.7613 2.0924 1.3441 1.4691 9.4257 -0.0641 2.1159 -3.6337 -1.1847 0.9332 -9.1155 -7.1415 -3.4604 -9.9792 7.1540 -4.7205 11.8262 3.0402 -2.2028 5.5399 -0.0000 -0.0000 0.0000 2.4064 16.2088 -30.3201 16.0308 -25.5625 3.6593 5.3296 10.7093 32.5335 0.0 0.0 0.0 -7.1250 0.0 0.0 -14.8782 -1.7135 -15.8545 -0.0000 -0.0000 0.0000 -6.3491 19.6686 48.7089 -18.9395 -29.3434 -5.0011 -14.7948 30.6707 55.8665 0.0 0.0 0.0 7.1250 0.0 -0.0 78.1673 77.3258 -65.1787
8.6113 15.4802 22.4265 -179.0120 -1.0683 179.4090 0.0000 0.0000 0.0000 -24.0578 -16.5506 0.2326 1.7032 8.2185 23.3796 1.4706 6.0865 -25.8164 1.8945 -8.6427 -24.6839 0.0000 0.0000 0.0000 26.8448 13.1774 5.2350 -0.7851 -5.6566 15.7912 0.2473 -18.6880 -24.3037 -0.0158 -0.8119 2.2313 1.3529 1.4786 9.4232 -0.0629 2.1300 -3.6183 -1.1904 0.9401 -9.0965 -7.2254 -3.4699 -9.9780 7.2753 -4.7364 11.7942 3.0912 -2.2064 5.5358 0.0000 0.0000 0.0000 2.4398 16.2417 -30.5026 16.0684 -25.6133 3.6755 5.4588 10.432 32.4655 0.0 0.0 0.0 -7.1250 0.0 0.0 -14.8043 -1.662 -15.7569 0.0000 0.0000 0.0000 -6.3737 19.6855 48.8153 -18.9304 -29.3321 -4.9967 -15.1763 30.8835 55.7549 0.0 0.0 0.0 7.1250 0.0 -0.0 77.6710 77.4607 -64.844
8.6104 15.4805 22.4255 -179.0330 -1.0561 179.4190 0.0000 0.0000 0.0000 -24.0856 -16.5747 0.2247 1.7107 8.2355 23.4316 1.4935 5.8995 -25.8741 1.7871 -8.4078 -23.9599 0.0000 0.0000 0.0000 26.8154 13.1511 5.2617 -0.7777 -5.6305 15.7160 0.2760 -18.7346 -24.1092 -0.0102 -0.6517 1.7910 1.3148 1.4809 9.4091 -0.0626 2.1280 -3.6130 -1.1678 0.9416 -9.0839 -7.2340 -3.4668 -9.9805 7.3122 -4.7337 11.7645 3.1045 -2.2029 5.5278 0.0000 0.0000 0.0000 2.4626 16.2565 -30.5895 16.0703 -25.6159 3.6763 5.581 10.2552 32.5271 0.0 0.0 0.0 -7.1250 0.0 0.0 -14.7395 -1.7349 -15.7017 0.0000 0.0000 0.0000 -6.4218 19.6756 48.9352 -18.9510 -29.3577 -5.0068 -15.1301 30.6745 55.9316 0.0 0.0 0.0 7.1250 0.0 -0.0 78.4722 77.4549 -65.6173
8.6103 15.4829 22.4276 -179.0120 -1.0635 179.4600 0.0000 0.0000 0.0000 -24.0555 -16.6424 0.1672 1.7190 8.2545 23.4898 1.4992 5.8074 -25.8618 1.7147 -8.2446 -23.4595 0.0000 0.0000 0.0000 26.8271 13.1545 5.2415 -0.7711 -5.6070 15.6482 0.2808 -18.7458 -24.0821 -0.0119 -0.7043 1.9355 1.3005 1.4662 9.3919 -0.0402 2.1079 -3.6105 -1.1320 0.9336 -9.0729 -7.2008 -3.4534 -9.9957 7.2749 -4.7109 11.7374 3.0889 -2.1917 5.5186 0.0000 -0.0000 0.0000 2.4432 16.2317 -30.5868 16.0674 -25.6119 3.675 5.4355 10.1531 32.5253 0.0 0.0 0.0 -7.1250 0.0 0.0 -14.8196 -1.7172 -15.7885 0.0000 -0.0000 0.0000 -6.4884 19.681 48.981 -19.0516 -29.4827 -5.0562 -14.7518 30.2201 56.3206 0.0 0.0 0.0 7.1250 0.0 -0.0 80.2079 77.3319 -67.1808
8.6101 15.4841 22.4305 -178.9530 -1.0833 179.4790 0.0000 0.0000 0.0000 -23.9738 -16.6356 0.1012 1.7254 8.2691 23.5344 1.4988 5.7809 -25.8435 1.7437 -8.3104 -23.6609 0.0000 0.0000 0.0000 26.8823 13.1645 5.2215 -0.7677 -5.5950 15.6138 0.2792 -18.7827 -24.1551 -0.0165 -0.8281 2.2760 1.3512 1.4484 9.4405 -0.0214 2.0930 -3.6230 -1.1396 0.9233 -9.1145 -7.1766 -3.4547 -9.9841 7.2299 -4.7085 11.7181 3.0710 -2.1923 5.5089 0.0000 0.0000 0.0000 2.4392 16.2285 -30.5555 16.0758 -25.6234 3.6787 5.2494 10.1653 32.4677 0.0 0.0 0.0 -7.1250 0.0 0.0 -14.9198 -1.6413 -15.8834 0.0000 0.0000 0.0000 -6.4909 19.75 48.9448 -19.1034 -29.547 -5.0818 -14.7636 30.3068 56.3534 0.0 0.0 0.0 7.1250 0.0 -0.0 80.3569 77.3372 -67.3331
8.6089 15.4822 22.4310 -178.9330 -1.0966 179.4480 0.0000 0.0000 0.0000 -23.9492 -16.5839 0.0659 1.7324 8.2850 23.5830 1.5028 5.7696 -25.8664 1.8194 -8.4794 -24.1798 0.0000 0.0000 0.0000 26.9018 13.1233 5.2571 -0.7642 -5.5825 15.5778 0.2805 -18.7954 -24.1624 -0.0147 -0.7822 2.1498 1.3740 1.4391 9.5247 -0.0056 2.0865 -3.6326 -1.1374 0.9184 -9.1743 -7.1748 -3.4715 -9.9535 7.1600 -4.7224 11.7124 3.0477 -2.2038 5.5013 0.0000 0.0000 0.0000 2.4485 16.2755 -30.6635 16.1055 -25.6635 3.6915 5.319 10.0097 32.4318 0.0 0.0 0.0 -7.1250 0.0 0.0 -14.8800 -1.6143 -15.831 0.0000 0.0000 0.0000 -6.505 19.7803 48.9712 -19.0609 -29.4943 -5.0608 -14.9885 30.5614 56.1174 0.0 0.0 0.0 7.1250 0.0 -0.0 79.3083 77.4118 -66.3864
8.6077 15.4826 22.4301 -178.9150 -1.0774 179.4390 0.0000 0.0000 0.0000 -23.9194 -16.5017 0.0156 1.7374 8.2962 23.6174 1.5105 5.7191 -25.8935 1.8752 -8.6011 -24.5553 0.0000 0.0000 0.0000 26.9200 13.1057 5.2717 -0.7639 -5.5813 15.5743 0.2655 -18.7336 -24.2056 -0.0138 -0.7591 2.0861 1.3758 1.4330 9.5767 0.0136 2.0811 -3.6405 -1.1189 0.9157 -9.2144 -7.2400 -3.4590 -9.9761 7.2291 -4.7072 11.7498 3.0814 -2.1948 5.5187 -0.0000 0.0000 0.0000 2.4336 16.313 -30.7363 16.1397 -25.7097 3.7064 5.3867 9.8144 32.44 0.0 0.0 0.0 -7.1250 0.0 0.0 -14.8430 -1.6295 -15.7928 -0.0000 0.0000 0.0000 -6.5655 19.77 49.1205 -19.0103 -29.4315 -5.0359 -15.4616 30.9401 55.9792 0.0 0.0 0.0 7.1250 0.0 -0.0 78.7084 77.5811 -65.9856
